# xmcd
#
# Track frame offsets:
#  150
#  18817
#  35129
#  52328
#  66673
#  88151
#  109332
#  124727
#  140042
#  156215
#
# Disc length: 2362 seconds
#
# Revision: 0
# Processed by: cddbd v1.4b42PL1 Copyright (c) Steve Scherf et al.
# Submitted via: AltoMP3_Maker 3.0
#
DISCID=9a09380a
DTITLE=Ty Herndon - Steam
DYEAR=1900
DGENRE=
TTITLE0=Lookin' For The Good Life
TTITLE1=Steam
TTITLE2=Putting The Brakes On Time
TTITLE3=I Can't Do It All
TTITLE4=No Mercy
TTITLE5=In A New York Second
TTITLE6=That's What I Call Love
TTITLE7=Pray For Me
TTITLE8=A Love Like That
TTITLE9=You Can Leave Your Hat On
EXTD=
EXTT0=
EXTT1=
EXTT2=
EXTT3=
EXTT4=
EXTT5=
EXTT6=
EXTT7=
EXTT8=
EXTT9=
PLAYORDER=
